<svg xmlns="http://www.w3.org/2000/svg" data-name="Layer 1" viewBox="0 0 100 125" x="0px" y="0px"><title>business card icon</title><path d="M65.9,34.88A13.12,13.12,0,0,1,69,46.57a2.57,2.57,0,0,0,2,3h0a2.58,2.58,0,0,0,3.11-1.87c1.41-6,.14-12.28-4-16.71s-10.34-6.07-16.45-5a2.58,2.58,0,0,0-2,3v0a2.57,2.57,0,0,0,2.85,2.13A13.12,13.12,0,0,1,65.9,34.88Z"/><path d="M72.82,28.36c5,5.29,6.47,12.77,4.69,20a2.61,2.61,0,0,0,1.91,3.2h0a2.6,2.6,0,0,0,3.1-1.83C85,40.64,83.27,31.12,77,24.44s-15.71-9-24.9-7a2.6,2.6,0,0,0-2,3v0a2.61,2.61,0,0,0,3.09,2.09C60.45,21.16,67.83,23.06,72.82,28.36Z"/><path d="M79.39,22.15c7,7.41,8.92,18,6.16,28a2.59,2.59,0,0,0,1.89,3.22h0a2.6,2.6,0,0,0,3.09-1.8c3.5-11.93,1.32-24.57-7-33.39S62.74,6.51,50.62,9.31a2.6,2.6,0,0,0-2,3h0a2.59,2.59,0,0,0,3.11,2.08C62,12.2,72.4,14.74,79.39,22.15Z"/><path d="M85.85,73.34C80.3,68.8,69.15,60.21,68.29,59.75c-3.57-1.9-8.63,7.22-10.07,9.54h0c-3.48,4.78-7.42,1.9-8.85.57l0-.07h0C43.15,64,35.16,53.72,30.82,47.91s-1-8.94-.07-9.65l.2-.15h0a28.08,28.08,0,0,0,2.39-1.84A24.09,24.09,0,0,0,40,26.14a4.94,4.94,0,0,0-.65-4.63L28.68,7a4.91,4.91,0,0,0-6.91-1c-4.28,3.23-10.45,8.88-12.6,15.86A35.23,35.23,0,0,0,8,27.22a35.63,35.63,0,0,0,1.13,13,61.72,61.72,0,0,0,5.91,14.7,79.12,79.12,0,0,0,12.48,17s5.36,6,9.62,9.9c3.68,3.37,9.79,8.84,19,11.6,3.62,1.09,7.71,2.26,12.73,1.13a23.1,23.1,0,0,0,9.62-5.09A35.47,35.47,0,0,0,87,79.58,4.89,4.89,0,0,0,85.85,73.34Z"/><text x="0" y="115" fill="#000000" font-size="5px" font-weight="bold" font-family="'Helvetica Neue', Helvetica, Arial-Unicode, Arial, Sans-serif">Created by fajar hasyim</text><text x="0" y="120" fill="#000000" font-size="5px" font-weight="bold" font-family="'Helvetica Neue', Helvetica, Arial-Unicode, Arial, Sans-serif">from the Noun Project</text></svg>