<svg xmlns="http://www.w3.org/2000/svg" xmlns:xlink="http://www.w3.org/1999/xlink" version="1.1" x="0px" y="0px" viewBox="0 0 100 125" enable-background="new 0 0 100 100" xml:space="preserve"><g><path d="M93.341,39.823l-9.566-6.792V16.604c0-0.874-0.684-1.581-1.531-1.581h-8.408c-0.843,0-1.529,0.708-1.529,1.581v8.286   L51.017,9.775c-0.433-0.304-1.131-0.307-1.562-0.003L6.674,39.846c-2.589,1.821-2.122,3.298,1.041,3.295h84.561   C95.439,43.141,95.919,41.657,93.341,39.823z"/><path d="M12.607,84.722v4.632c0,0.607,0.493,1.1,1.101,1.1h72.583c0.608,0,1.101-0.492,1.101-1.1v-4.632   c0-0.606-0.492-1.099-1.101-1.099h-2.632c0.151-0.227,0.26-0.484,0.26-0.774V47.018c-0.002-0.79-0.644-1.433-1.436-1.433H17.988   c-0.784,0-1.433,0.643-1.433,1.433v35.831c0,0.291,0.109,0.548,0.26,0.774h-3.107C13.101,83.623,12.607,84.114,12.607,84.722z    M71.661,54.188c0-0.357,0.267-0.647,0.593-0.647h5.066c0.329,0,0.591,0.29,0.591,0.647v5.518c0,0.362-0.265,0.652-0.591,0.652   h-5.066c-0.329,0-0.593-0.291-0.593-0.652V54.188z M71.661,63.274c0-0.361,0.267-0.648,0.593-0.648h5.066   c0.329,0,0.591,0.29,0.591,0.648v5.518c0,0.359-0.265,0.65-0.591,0.65h-5.066c-0.329,0-0.593-0.291-0.593-0.65V63.274z    M62.515,54.188c0-0.357,0.267-0.647,0.596-0.647h5.059c0.333,0,0.601,0.29,0.601,0.647v5.518c0,0.362-0.271,0.652-0.601,0.652   H63.11c-0.332,0-0.596-0.291-0.596-0.652V54.188z M62.515,63.274c0-0.361,0.267-0.648,0.596-0.648h5.059   c0.333,0,0.601,0.29,0.601,0.648v5.518c0,0.359-0.271,0.65-0.601,0.65H63.11c-0.332,0-0.596-0.291-0.596-0.65V63.274z M50,48.362   c1.92,0,3.476,1.556,3.476,3.476S51.92,55.313,50,55.313s-3.478-1.556-3.478-3.476S48.079,48.362,50,48.362z M43.729,64.617   c0-0.272,0.227-0.495,0.505-0.495h12.368c0.279,0,0.506,0.223,0.506,0.495v18.044c0,0.273-0.227,0.495-0.506,0.495H44.233   c-0.277,0-0.505-0.222-0.505-0.495V64.617z M31.498,54.187c0-0.358,0.261-0.649,0.593-0.649h5.058c0.338,0,0.603,0.291,0.603,0.649   v5.519c0,0.362-0.265,0.652-0.603,0.652h-5.058c-0.329,0-0.593-0.292-0.593-0.652V54.187z M31.498,63.274   c0-0.36,0.261-0.648,0.593-0.648h5.058c0.338,0,0.603,0.291,0.603,0.648v5.521c0,0.36-0.265,0.65-0.603,0.65h-5.058   c-0.329,0-0.593-0.291-0.593-0.65V63.274z M22.355,54.187c0-0.358,0.265-0.649,0.596-0.649h5.058c0.33,0,0.598,0.291,0.598,0.649   v5.519c0,0.362-0.27,0.652-0.598,0.652h-5.058c-0.332,0-0.596-0.292-0.596-0.652V54.187z M22.355,63.274   c0-0.36,0.265-0.648,0.596-0.648h5.058c0.33,0,0.598,0.291,0.598,0.648v5.521c0,0.36-0.27,0.65-0.598,0.65h-5.058   c-0.332,0-0.596-0.291-0.596-0.65V63.274z"/></g><text x="0" y="115" fill="#000000" font-size="5px" font-weight="bold" font-family="'Helvetica Neue', Helvetica, Arial-Unicode, Arial, Sans-serif">Created by Milinda Courey</text><text x="0" y="120" fill="#000000" font-size="5px" font-weight="bold" font-family="'Helvetica Neue', Helvetica, Arial-Unicode, Arial, Sans-serif">from the Noun Project</text></svg>